<svg width="276" height="120" viewBox="0 0 276 120" fill="none" xmlns="http://www.w3.org/2000/svg">
<circle cx="138" cy="60" r="60" fill="#FFBB99"/>
<path opacity="0.4" fill-rule="evenodd" clip-rule="evenodd" d="M144.683 9.57737C144.173 8.92418 143.23 8.80775 142.577 9.3173C141.924 9.82685 141.808 10.7694 142.317 11.4226L145.998 16.1405C143.402 15.6694 140.729 15.4235 138 15.4235C113.423 15.4235 93.5 35.3468 93.5 59.9235C93.5 74.4813 100.492 87.4064 111.295 95.5227C111.957 96.0203 112.897 95.8868 113.395 95.2245C113.893 94.5622 113.759 93.6219 113.097 93.1242C103.016 85.5502 96.5 73.498 96.5 59.9235C96.5 37.0037 115.08 18.4235 138 18.4235C141.251 18.4235 144.412 18.7969 147.445 19.5027L140.557 24.9375C139.907 25.4507 139.796 26.3939 140.309 27.0443C140.822 27.6946 141.765 27.8059 142.415 27.2927L151.202 20.3598C151.85 19.8487 151.963 18.9103 151.456 18.2596L144.683 9.57737ZM135.328 97.2507C136.019 96.7934 136.208 95.8627 135.751 95.172C135.293 94.4812 134.363 94.2919 133.672 94.7492L124.969 100.511C124.636 100.731 124.405 101.075 124.326 101.467C124.248 101.859 124.329 102.266 124.552 102.597L130.75 111.829C131.212 112.517 132.144 112.7 132.832 112.238C133.519 111.777 133.703 110.845 133.241 110.157L128.744 103.459C131.731 104.091 134.827 104.423 138 104.423C162.577 104.423 182.5 84.5002 182.5 59.9235C182.5 45.3657 175.508 32.4405 164.705 24.3242C164.043 23.8266 163.103 23.9601 162.605 24.6225C162.107 25.2848 162.241 26.2251 162.903 26.7227C172.984 34.2968 179.5 46.349 179.5 59.9235C179.5 82.8433 160.92 101.423 138 101.423C135.314 101.423 132.688 101.168 130.146 100.682L135.328 97.2507Z" fill="white"/>
<path d="M128.439 44.7616C127.424 43.7461 125.777 43.7461 124.762 44.7616C123.746 45.7771 123.746 47.4235 124.762 48.439L134.323 58L124.762 67.561C123.746 68.5765 123.746 70.2229 124.762 71.2384C125.777 72.2539 127.424 72.2539 128.439 71.2384L138 61.6774L147.561 71.2383C148.576 72.2538 150.223 72.2538 151.238 71.2383C152.254 70.2228 152.254 68.5764 151.238 67.5609L141.677 58L151.238 48.4391C152.254 47.4236 152.254 45.7772 151.238 44.7617C150.223 43.7462 148.576 43.7462 147.561 44.7617L138 54.3226L128.439 44.7616Z" fill="white"/>
<path fill-rule="evenodd" clip-rule="evenodd" d="M0 62H78V58H0V62Z" fill="url(#paint0_linear)"/>
<path fill-rule="evenodd" clip-rule="evenodd" d="M276 58L198 58L198 62L276 62L276 58Z" fill="url(#paint1_linear)"/>
<defs>
<linearGradient id="paint0_linear" x1="81.4752" y1="63" x2="13.901" y2="63" gradientUnits="userSpaceOnUse">
<stop stop-color="#FFBB99" stop-opacity="0.8"/>
<stop offset="1" stop-color="#FFBB99" stop-opacity="0"/>
</linearGradient>
<linearGradient id="paint1_linear" x1="194.525" y1="57" x2="262.099" y2="57" gradientUnits="userSpaceOnUse">
<stop stop-color="#FFBB99" stop-opacity="0.8"/>
<stop offset="1" stop-color="#FFBB99" stop-opacity="0"/>
</linearGradient>
</defs>
</svg>
